<svg width="259" height="225" viewBox="0 0 259 225" fill="none" xmlns="http://www.w3.org/2000/svg">
<path d="M72.72 82.832C71.664 74.96 68.88 68.864 64.368 64.544C59.952 60.224 53.856 58.064 46.08 58.064C35.328 58.064 27.072 62 21.312 69.872C15.648 77.648 12.816 90.224 12.816 107.6C12.816 110.96 12.864 113.504 12.96 115.232C14.208 107.744 17.904 101.792 24.048 97.376C30.288 92.864 37.728 90.608 46.368 90.608C57.024 90.608 65.232 93.728 70.992 99.968C76.848 106.208 79.776 114.8 79.776 125.744C79.776 131.696 78.672 137.168 76.464 142.16C74.256 147.152 70.704 151.232 65.808 154.4C60.912 157.472 54.672 159.008 47.088 159.008C32.784 159.008 23.04 154.544 17.856 145.616C12.672 136.592 10.08 124.448 10.08 109.184C10.08 92 12.864 78.752 18.432 69.44C24.096 60.128 33.312 55.472 46.08 55.472C54.72 55.472 61.536 57.92 66.528 62.816C71.52 67.712 74.544 74.384 75.6 82.832H72.72ZM46.368 93.2C40.992 93.2 35.808 94.304 30.816 96.512C25.92 98.72 21.84 102.032 18.576 106.448C15.408 110.864 13.824 116.288 13.824 122.72C13.824 128.48 14.976 133.952 17.28 139.136C19.584 144.224 23.232 148.4 28.224 151.664C33.216 154.832 39.504 156.416 47.088 156.416C56.112 156.416 63.312 153.68 68.688 148.208C74.16 142.736 76.896 135.248 76.896 125.744C76.896 115.184 74.16 107.12 68.688 101.552C63.312 95.984 55.872 93.2 46.368 93.2ZM160.885 59.216H102.997V105.296C105.781 101.168 109.861 97.856 115.237 95.36C120.613 92.864 126.469 91.616 132.805 91.616C143.941 91.616 152.197 94.736 157.573 100.976C163.045 107.12 165.781 114.8 165.781 124.016C165.781 130.352 164.629 136.16 162.325 141.44C160.021 146.72 156.325 150.992 151.237 154.256C146.245 157.424 139.909 159.008 132.229 159.008C123.205 159.008 115.669 156.464 109.621 151.376C103.573 146.288 99.8771 139.28 98.5331 130.352H101.413C103.045 138.704 106.597 145.088 112.069 149.504C117.541 153.92 124.213 156.128 132.085 156.128C142.261 156.128 149.941 153.2 155.125 147.344C160.309 141.392 162.901 133.616 162.901 124.016C162.901 114.8 160.261 107.552 154.981 102.272C149.797 96.896 142.405 94.208 132.805 94.208C126.181 94.208 120.229 95.6 114.949 98.384C109.669 101.168 105.589 105.056 102.709 110.048H100.117V56.624H160.885V59.216ZM183.752 107.024C183.752 96.176 184.616 87.056 186.344 79.664C188.072 72.272 191.288 66.416 195.992 62.096C200.696 57.776 207.368 55.616 216.008 55.616C224.552 55.616 231.176 57.776 235.88 62.096C240.68 66.416 243.944 72.32 245.672 79.808C247.4 87.2 248.264 96.272 248.264 107.024C248.264 117.968 247.4 127.184 245.672 134.672C243.944 142.16 240.68 148.112 235.88 152.528C231.176 156.848 224.552 159.008 216.008 159.008C207.368 159.008 200.696 156.848 195.992 152.528C191.288 148.112 188.072 142.16 186.344 134.672C184.616 127.184 183.752 117.968 183.752 107.024ZM245.384 107.024C245.384 96.656 244.616 87.968 243.08 80.96C241.544 73.952 238.616 68.432 234.296 64.4C230.072 60.272 223.976 58.208 216.008 58.208C208.04 58.208 201.896 60.272 197.576 64.4C193.352 68.432 190.472 73.952 188.936 80.96C187.4 87.968 186.632 96.656 186.632 107.024C186.632 117.488 187.4 126.272 188.936 133.376C190.472 140.48 193.352 146.096 197.576 150.224C201.896 154.352 208.04 156.416 216.008 156.416C223.976 156.416 230.072 154.352 234.296 150.224C238.616 146.096 241.544 140.48 243.08 133.376C244.616 126.272 245.384 117.488 245.384 107.024Z" fill="#290B12"/>
<path d="M37.41 187.21C36.598 185.502 35.422 184.186 33.882 183.262C32.342 182.31 30.55 181.834 28.506 181.834C26.462 181.834 24.614 182.31 22.962 183.262C21.338 184.186 20.05 185.53 19.098 187.294C18.174 189.03 17.712 191.046 17.712 193.342C17.712 195.638 18.174 197.654 19.098 199.39C20.05 201.126 21.338 202.47 22.962 203.422C24.614 204.346 26.462 204.808 28.506 204.808C31.362 204.808 33.714 203.954 35.562 202.246C37.41 200.538 38.488 198.228 38.796 195.316H27.12V192.208H42.87V195.148C42.646 197.556 41.89 199.768 40.602 201.784C39.314 203.772 37.62 205.354 35.52 206.53C33.42 207.678 31.082 208.252 28.506 208.252C25.79 208.252 23.312 207.622 21.072 206.362C18.832 205.074 17.054 203.296 15.738 201.028C14.45 198.76 13.806 196.198 13.806 193.342C13.806 190.486 14.45 187.924 15.738 185.656C17.054 183.36 18.832 181.582 21.072 180.322C23.312 179.034 25.79 178.39 28.506 178.39C31.614 178.39 34.358 179.16 36.738 180.7C39.146 182.24 40.896 184.41 41.988 187.21H37.41ZM68.4195 178.726L58.8855 196.954V208H55.0635V196.954L45.4875 178.726H49.7295L56.9535 193.552L64.1775 178.726H68.4195ZM102.145 178.936V208H98.3228V186.328L88.6628 208H85.9748L76.2728 186.286V208H72.4508V178.936H76.5668L87.3188 202.96L98.0708 178.936H102.145ZM142.294 208L138.472 204.136C137.044 205.62 135.518 206.726 133.894 207.454C132.27 208.154 130.436 208.504 128.392 208.504C126.376 208.504 124.584 208.14 123.016 207.412C121.476 206.684 120.272 205.648 119.404 204.304C118.564 202.96 118.144 201.392 118.144 199.6C118.144 197.556 118.718 195.764 119.866 194.224C121.042 192.656 122.764 191.424 125.032 190.528C124.136 189.464 123.492 188.484 123.1 187.588C122.708 186.692 122.512 185.712 122.512 184.648C122.512 183.416 122.82 182.31 123.436 181.33C124.08 180.322 124.99 179.538 126.166 178.978C127.342 178.418 128.7 178.138 130.24 178.138C131.752 178.138 133.068 178.432 134.188 179.02C135.308 179.608 136.148 180.434 136.708 181.498C137.268 182.534 137.52 183.696 137.464 184.984H133.642C133.67 183.836 133.348 182.94 132.676 182.296C132.004 181.624 131.136 181.288 130.072 181.288C128.952 181.288 128.042 181.61 127.342 182.254C126.67 182.87 126.334 183.668 126.334 184.648C126.334 185.488 126.558 186.3 127.006 187.084C127.482 187.868 128.266 188.834 129.358 189.982L138.094 198.76L138.85 197.584L141.706 192.796H145.822L142.378 198.76C141.902 199.6 141.342 200.482 140.698 201.406L147.292 208H142.294ZM128.392 205.228C129.904 205.228 131.262 204.934 132.466 204.346C133.698 203.758 134.86 202.848 135.952 201.616L127.342 192.964C123.758 194.336 121.966 196.506 121.966 199.474C121.966 201.126 122.554 202.498 123.73 203.59C124.934 204.682 126.488 205.228 128.392 205.228ZM171.184 178.726C174.376 178.726 177.134 179.328 179.458 180.532C181.81 181.708 183.602 183.402 184.834 185.614C186.094 187.826 186.724 190.43 186.724 193.426C186.724 196.422 186.094 199.026 184.834 201.238C183.602 203.422 181.81 205.102 179.458 206.278C177.134 207.426 174.376 208 171.184 208H162.07V178.726H171.184ZM171.184 204.85C174.964 204.85 177.848 203.856 179.836 201.868C181.824 199.852 182.818 197.038 182.818 193.426C182.818 189.786 181.81 186.944 179.794 184.9C177.806 182.856 174.936 181.834 171.184 181.834H165.892V204.85H171.184ZM195.587 178.726V208H191.765V178.726H195.587ZM225.117 208H221.295L205.923 184.69V208H202.101V178.684H205.923L221.295 201.952V178.684H225.117V208ZM235.454 181.834V191.62H246.122V194.77H235.454V204.85H247.382V208H231.632V178.684H247.382V181.834H235.454Z" fill="#290B12"/>
</svg>
