<svg width="246" height="236" viewBox="0 0 246 236" fill="none" xmlns="http://www.w3.org/2000/svg">
<path d="M150.094 117.992L242.07 29.7514C244.6 27.3223 245.996 24.0816 246 20.626C246 17.1685 244.604 13.924 242.07 11.4988L234.01 3.76833C231.476 1.3335 228.098 0 224.492 0C220.892 0 217.514 1.3335 214.98 3.76833L123.004 92.0036L31.024 3.76833C28.494 1.3335 25.114 0 21.51 0C17.91 0 14.53 1.3335 12 3.76833L3.936 11.4988C-1.312 16.5334 -1.312 24.7224 3.936 29.7514L95.914 117.992L3.936 206.229C1.404 208.662 0.01 211.903 0.01 215.359C0.01 218.814 1.404 222.055 3.936 224.486L11.998 232.216C14.528 234.649 17.91 235.985 21.508 235.985C25.112 235.985 28.492 234.649 31.022 232.216L123.002 143.979L214.978 232.216C217.512 234.649 220.89 235.985 224.49 235.985H224.494C228.096 235.985 231.474 234.649 234.008 232.216L242.068 224.486C244.598 222.057 245.994 218.814 245.994 215.359C245.994 211.903 244.598 208.662 242.068 206.231L150.094 117.992Z" fill="black"/>
</svg>
