<svg width="35" height="35" viewBox="0 0 35 35" fill="none" xmlns="http://www.w3.org/2000/svg">
<g clip-path="url(#clip0)">
<path d="M10.4505 25.5561C8.981 25.481 9.00867 23.414 10.4505 23.3422C14.5347 23.3564 25.3071 23.3461 29.5211 23.349C30.6737 23.349 31.6598 22.5646 31.9191 21.4417L34.3119 11.0798C34.449 10.4865 34.3107 9.87246 33.9326 9.39519C33.5545 8.91791 32.9885 8.64033 32.3796 8.64033C30.6844 8.64033 16.2942 8.57519 8.92361 8.54581L7.75525 4.21066C7.47477 3.17467 6.52937 2.45117 5.45611 2.45117H1.71326C1.16874 2.45117 0.727295 2.89262 0.727295 3.43714C0.727295 3.98165 1.16874 4.4231 1.71326 4.4231H5.45611C5.64088 4.4231 5.80356 4.54766 5.85161 4.72494L10.3387 21.373C9.54977 21.4017 8.8149 21.7226 8.25763 22.288C7.6721 22.8822 7.35764 23.6687 7.37217 24.5028C7.40122 26.1708 8.78216 27.5279 10.4505 27.5279H11.8882C11.6745 27.9765 11.5546 28.4779 11.5546 29.0069C11.5546 30.9098 13.1027 32.4579 15.0056 32.4579C16.9085 32.4579 18.4566 30.9098 18.4566 29.0069C18.4566 28.4779 18.3365 27.9765 18.1229 27.5279H24.3486C24.1351 27.9763 24.0152 28.4775 24.0152 29.0064C24.0152 30.9093 25.5633 32.4574 27.4662 32.4574C29.3691 32.4574 30.9173 30.9092 30.9173 29.0064C30.9173 28.457 30.7875 27.9374 30.5581 27.4759C30.9483 27.3445 31.2296 26.9764 31.2296 26.542C31.2296 25.9975 30.7882 25.5561 30.2436 25.5561H10.4505ZM16.4846 29.007C16.4846 29.8226 15.8211 30.4861 15.0055 30.4861C14.1899 30.4861 13.5264 29.8226 13.5264 29.007C13.5264 28.1919 14.1893 27.5286 15.0043 27.528H15.0068C15.8217 27.5286 16.4846 28.1919 16.4846 29.007ZM27.4662 30.4855C26.6507 30.4855 25.9872 29.822 25.9872 29.0065C25.9872 28.199 26.6378 27.5409 27.4423 27.528H27.4903C28.2949 27.5409 28.9455 28.199 28.9455 29.0065C28.9454 29.822 28.2818 30.4855 27.4662 30.4855V30.4855ZM32.3869 10.6195C32.3927 10.6269 32.3919 10.6303 32.3906 10.636L31.3824 15.0022H27.9682L28.5496 10.5967L32.3717 10.6121C32.3776 10.6122 32.3811 10.6122 32.3869 10.6195V10.6195ZM22.2219 21.377V16.9741H25.7189L25.1379 21.377H22.2219ZM17.3327 21.377L16.7469 16.9741H20.25V21.377H17.3327ZM12.7938 21.377H12.7907C12.5504 21.3769 12.3387 21.2149 12.2762 20.9839L11.1954 16.9741H14.7576L15.3434 21.377H12.7938ZM16.4845 15.0022L15.8916 10.5457L20.2499 10.5633V15.0022H16.4845ZM22.2219 15.0022V10.5712L26.5616 10.5887L25.9792 15.0022H22.2219ZM13.9012 10.5377L14.4952 15.0022H10.6639L9.45577 10.5197L13.9012 10.5377ZM29.5211 21.377H27.1268L27.7079 16.9741H30.9269L29.9977 20.9979C29.9461 21.2212 29.7502 21.377 29.5211 21.377Z" fill="#F8FAF9"/>
</g>
<defs>
<clipPath id="clip0">
<rect width="33.6364" height="33.6364" fill="white" transform="translate(0.727295 0.636414)"/>
</clipPath>
</defs>
</svg>
